<svg width="72" height="72" viewBox="0 0 72 72" fill="none" xmlns="http://www.w3.org/2000/svg">
<path d="M46.116 37.008C48.3947 34.5609 49.6784 31.3516 49.716 28.008C49.716 24.3989 48.2823 20.9377 45.7303 18.3857C43.1783 15.8337 39.7171 14.4 36.108 14.4C32.4989 14.4 29.0377 15.8337 26.4857 18.3857C23.9337 20.9377 22.5 24.3989 22.5 28.008C22.5376 31.3516 23.8213 34.5609 26.1 37.008C22.9272 38.5879 20.1968 40.9318 18.1545 43.8287C16.1122 46.7256 14.822 50.0848 14.4 53.604C14.295 54.5588 14.5735 55.5162 15.1744 56.2656C15.7753 57.015 16.6492 57.495 17.604 57.6C18.5588 57.705 19.5162 57.4265 20.2656 56.8256C21.015 56.2247 21.495 55.3508 21.6 54.396C22.0296 50.9081 23.7198 47.6977 26.3523 45.3696C28.9848 43.0414 32.3777 41.7563 35.892 41.7563C39.4063 41.7563 42.7992 43.0414 45.4317 45.3696C48.0642 47.6977 49.7544 50.9081 50.184 54.396C50.2841 55.3191 50.737 56.1678 51.4481 56.7649C52.1592 57.3619 53.0735 57.6611 54 57.6H54.396C55.3397 57.4914 56.2022 57.0143 56.7956 56.2725C57.389 55.5307 57.6652 54.5845 57.564 53.64C57.1733 50.1393 55.9238 46.7893 53.9266 43.8878C51.9294 40.9862 49.2464 38.623 46.116 37.008V37.008ZM36 34.416C34.7326 34.416 33.4937 34.0402 32.4399 33.3361C31.3861 32.6319 30.5648 31.6311 30.0798 30.4602C29.5948 29.2893 29.4679 28.0009 29.7151 26.7579C29.9624 25.5148 30.5727 24.373 31.4689 23.4769C32.365 22.5807 33.5068 21.9704 34.7499 21.7231C35.9929 21.4759 37.2813 21.6028 38.4522 22.0878C39.6231 22.5728 40.6239 23.3941 41.3281 24.4479C42.0322 25.5017 42.408 26.7406 42.408 28.008C42.408 29.7075 41.7329 31.3374 40.5311 32.5391C39.3294 33.7409 37.6995 34.416 36 34.416V34.416ZM61.2 0H10.8C7.93566 0 5.18864 1.13785 3.16325 3.16325C1.13785 5.18864 0 7.93566 0 10.8V61.2C0 64.0643 1.13785 66.8114 3.16325 68.8368C5.18864 70.8621 7.93566 72 10.8 72H61.2C64.0643 72 66.8114 70.8621 68.8368 68.8368C70.8621 66.8114 72 64.0643 72 61.2V10.8C72 7.93566 70.8621 5.18864 68.8368 3.16325C66.8114 1.13785 64.0643 0 61.2 0ZM64.8 61.2C64.8 62.1548 64.4207 63.0705 63.7456 63.7456C63.0705 64.4207 62.1548 64.8 61.2 64.8H10.8C9.84522 64.8 8.92955 64.4207 8.25442 63.7456C7.57929 63.0705 7.2 62.1548 7.2 61.2V10.8C7.2 9.84522 7.57929 8.92955 8.25442 8.25442C8.92955 7.57929 9.84522 7.2 10.8 7.2H61.2C62.1548 7.2 63.0705 7.57929 63.7456 8.25442C64.4207 8.92955 64.8 9.84522 64.8 10.8V61.2Z" fill="#818089"/>
</svg>
