<svg width="20" height="18" viewBox="0 0 20 18" fill="none" xmlns="http://www.w3.org/2000/svg">
<path d="M9.71359 1.64026L10.0109 1.86137L10.3089 1.64135C11.42 0.821247 12.7876 0.425263 14.165 0.524852C15.5413 0.62437 16.8369 1.21221 17.8182 2.18238C18.3514 2.72297 18.7727 3.36349 19.0579 4.06724C19.3434 4.77186 19.4869 5.52596 19.48 6.2862C19.4732 7.04645 19.3162 7.79784 19.018 8.49721C18.7198 9.19658 18.2864 9.83012 17.7426 10.3614L17.7425 10.3614L17.737 10.367L11.7387 16.4153C11.7384 16.4156 11.7381 16.4158 11.7378 16.4161C11.2692 16.8838 10.6341 17.1464 9.97199 17.1464C9.30988 17.1464 8.67483 16.8838 8.20615 16.4161C8.20588 16.4158 8.2056 16.4156 8.20533 16.4153L2.20701 10.367L2.20702 10.367L2.20431 10.3643C1.16885 9.33605 0.56145 7.95368 0.504413 6.49554C0.447377 5.0374 0.944945 3.61181 1.89692 2.50584C2.84889 1.39987 4.18456 0.69568 5.63495 0.535071C7.08533 0.374463 8.54271 0.769368 9.71359 1.64026Z" fill="#FD0F0F" stroke="#F50000"/>
</svg>
